<svg id="GoogleG_FullColor_rgb" xmlns="http://www.w3.org/2000/svg" viewBox="0 0 118 120"><defs><style>.cls-1{fill:#4285f4;}.cls-2{fill:#34a853;}.cls-3{fill:#fabb05;}.cls-4{fill:#e94235;}</style></defs><title>GoogleG_FullColor_rgb_120px</title><g id="_120px" data-name="120px"><path class="cls-1" d="M118,61.36A70.68,70.68,0,0,0,116.9,49H60V72H92.64a27.73,27.73,0,0,1-12,18.43v15.09h19.5C111.46,95.07,118,79.63,118,61.36Z"/><path class="cls-2" d="M60.2,120c16.24,0,29.92-5.32,39.89-14.48L80.59,90.43c-5.38,3.6-12.3,5.71-20.39,5.71-15.67,0-29-10.54-33.71-24.73H6.41V86.94A60.22,60.22,0,0,0,60.2,120Z"/><path class="cls-3" d="M6.41,86.94,26.49,71.41a35.93,35.93,0,0,1,0-22.82V33.06H6.41A59.6,59.6,0,0,0,0,60H0A59.6,59.6,0,0,0,6.41,86.94Z"/><path class="cls-4" d="M60.2,23.86a32.68,32.68,0,0,1,23,9l17.25-17.19A57.91,57.91,0,0,0,60.2,0,60.22,60.22,0,0,0,6.41,33.06L26.49,48.59C31.24,34.4,44.53,23.86,60.2,23.86Z"/></g></svg>